<?xml version="1.0" encoding="UTF-8"?>
<svg width="700pt" height="700pt" version="1.1" viewBox="0 0 700 700" xmlns="http://www.w3.org/2000/svg" xmlns:xlink="http://www.w3.org/1999/xlink">
 <defs>
  <symbol id="u" overflow="visible">
   <path d="m18.766-1.125c-0.96875 0.5-1.9805 0.875-3.0312 1.125-1.043 0.25781-2.1367 0.39062-3.2812 0.39062-3.3984 0-6.0898-0.94531-8.0781-2.8438-1.9922-1.9062-2.9844-4.4844-2.9844-7.7344 0-3.2578 0.99219-5.8359 2.9844-7.7344 1.9883-1.9062 4.6797-2.8594 8.0781-2.8594 1.1445 0 2.2383 0.13281 3.2812 0.39062 1.0508 0.25 2.0625 0.625 3.0312 1.125v4.2188c-0.98047-0.65625-1.9453-1.1406-2.8906-1.4531-0.94922-0.3125-1.9492-0.46875-3-0.46875-1.875 0-3.3516 0.60547-4.4219 1.8125-1.0742 1.1992-1.6094 2.8555-1.6094 4.9688 0 2.1055 0.53516 3.7617 1.6094 4.9688 1.0703 1.1992 2.5469 1.7969 4.4219 1.7969 1.0508 0 2.0508-0.14844 3-0.45312 0.94531-0.3125 1.9102-0.80078 2.8906-1.4688z"/>
  </symbol>
  <symbol id="c" overflow="visible">
   <path d="m13.734-11.141c-0.4375-0.19531-0.87109-0.34375-1.2969-0.4375-0.41797-0.10156-0.83984-0.15625-1.2656-0.15625-1.2617 0-2.2305 0.40625-2.9062 1.2188-0.67969 0.80469-1.0156 1.9531-1.0156 3.4531v7.0625h-4.8906v-15.312h4.8906v2.5156c0.625-1 1.3438-1.7266 2.1562-2.1875 0.82031-0.46875 1.8008-0.70312 2.9375-0.70312 0.16406 0 0.34375 0.011719 0.53125 0.03125 0.19531 0.011719 0.47656 0.039062 0.84375 0.078125z"/>
  </symbol>
  <symbol id="a" overflow="visible">
   <path d="m17.641-7.7031v1.4062h-11.453c0.125 1.1484 0.53906 2.0078 1.25 2.5781 0.70703 0.57422 1.7031 0.85938 2.9844 0.85938 1.0312 0 2.082-0.14844 3.1562-0.45312 1.082-0.3125 2.1914-0.77344 3.3281-1.3906v3.7656c-1.1562 0.4375-2.3125 0.76562-3.4688 0.98438-1.1562 0.22656-2.3125 0.34375-3.4688 0.34375-2.7734 0-4.9297-0.70312-6.4688-2.1094-1.5312-1.4062-2.2969-3.3789-2.2969-5.9219 0-2.5 0.75391-4.4609 2.2656-5.8906 1.5078-1.4375 3.582-2.1562 6.2188-2.1562 2.4062 0 4.332 0.73047 5.7812 2.1875 1.4453 1.4492 2.1719 3.3828 2.1719 5.7969zm-5.0312-1.625c0-0.92578-0.27344-1.6719-0.8125-2.2344-0.54297-0.57031-1.25-0.85938-2.125-0.85938-0.94922 0-1.7188 0.26562-2.3125 0.79688s-0.96484 1.2969-1.1094 2.2969z"/>
  </symbol>
  <symbol id="e" overflow="visible">
   <path d="m9.2188-6.8906c-1.0234 0-1.793 0.17188-2.3125 0.51562-0.51172 0.34375-0.76562 0.85547-0.76562 1.5312 0 0.625 0.20703 1.1172 0.625 1.4688 0.41406 0.34375 0.98828 0.51562 1.7188 0.51562 0.92578 0 1.7031-0.32812 2.3281-0.98438 0.63281-0.66406 0.95312-1.4922 0.95312-2.4844v-0.5625zm7.4688-1.8438v8.7344h-4.9219v-2.2656c-0.65625 0.92969-1.3984 1.6055-2.2188 2.0312-0.82422 0.41406-1.8242 0.625-3 0.625-1.5859 0-2.8711-0.45703-3.8594-1.375-0.99219-0.92578-1.4844-2.1289-1.4844-3.6094 0-1.7891 0.61328-3.1016 1.8438-3.9375 1.2383-0.84375 3.1797-1.2656 5.8281-1.2656h2.8906v-0.39062c0-0.76953-0.30859-1.332-0.92188-1.6875-0.61719-0.36328-1.5703-0.54688-2.8594-0.54688-1.0547 0-2.0312 0.10547-2.9375 0.3125-0.89844 0.21094-1.7305 0.52344-2.5 0.9375v-3.7344c1.0391-0.25 2.0859-0.44141 3.1406-0.57812 1.0625-0.13281 2.125-0.20312 3.1875-0.20312 2.7578 0 4.75 0.54688 5.9688 1.6406 1.2266 1.0859 1.8438 2.8555 1.8438 5.3125z"/>
  </symbol>
  <symbol id="b" overflow="visible">
   <path d="m7.7031-19.656v4.3438h5.0469v3.5h-5.0469v6.5c0 0.71094 0.14062 1.1875 0.42188 1.4375s0.83594 0.375 1.6719 0.375h2.5156v3.5h-4.1875c-1.9375 0-3.3125-0.39844-4.125-1.2031-0.80469-0.8125-1.2031-2.1797-1.2031-4.1094v-6.5h-2.4219v-3.5h2.4219v-4.3438z"/>
  </symbol>
  <symbol id="k" overflow="visible">
   <path d="m12.766-13.078v-8.2031h4.9219v21.281h-4.9219v-2.2188c-0.66797 0.90625-1.4062 1.5703-2.2188 1.9844s-1.7578 0.625-2.8281 0.625c-1.8867 0-3.4336-0.75-4.6406-2.25-1.2109-1.5-1.8125-3.4258-1.8125-5.7812 0-2.3633 0.60156-4.2969 1.8125-5.7969 1.207-1.5 2.7539-2.25 4.6406-2.25 1.0625 0 2 0.21484 2.8125 0.64062 0.82031 0.42969 1.5664 1.0859 2.2344 1.9688zm-3.2188 9.9219c1.0391 0 1.8359-0.37891 2.3906-1.1406 0.55078-0.76953 0.82812-1.8828 0.82812-3.3438 0-1.457-0.27734-2.5664-0.82812-3.3281-0.55469-0.76953-1.3516-1.1562-2.3906-1.1562-1.043 0-1.8398 0.38672-2.3906 1.1562-0.55469 0.76172-0.82812 1.8711-0.82812 3.3281 0 1.4609 0.27344 2.5742 0.82812 3.3438 0.55078 0.76172 1.3477 1.1406 2.3906 1.1406z"/>
  </symbol>
  <symbol id="j" overflow="visible">
   <path d="m10.5-3.1562c1.0508 0 1.8516-0.37891 2.4062-1.1406 0.55078-0.76953 0.82812-1.8828 0.82812-3.3438 0-1.457-0.27734-2.5664-0.82812-3.3281-0.55469-0.76953-1.3555-1.1562-2.4062-1.1562-1.0547 0-1.8594 0.38672-2.4219 1.1562-0.55469 0.77344-0.82812 1.8828-0.82812 3.3281 0 1.4492 0.27344 2.5586 0.82812 3.3281 0.5625 0.77344 1.3672 1.1562 2.4219 1.1562zm-3.25-9.9219c0.67578-0.88281 1.4219-1.5391 2.2344-1.9688 0.82031-0.42578 1.7656-0.64062 2.8281-0.64062 1.8945 0 3.4453 0.75 4.6562 2.25 1.207 1.5 1.8125 3.4336 1.8125 5.7969 0 2.3555-0.60547 4.2812-1.8125 5.7812-1.2109 1.5-2.7617 2.25-4.6562 2.25-1.0625 0-2.0078-0.21094-2.8281-0.625-0.8125-0.42578-1.5586-1.0859-2.2344-1.9844v2.2188h-4.8906v-21.281h4.8906z"/>
  </symbol>
  <symbol id="i" overflow="visible">
   <path d="m0.34375-15.312h4.8906l4.125 10.391 3.5-10.391h4.8906l-6.4375 16.766c-0.64844 1.6953-1.4023 2.8828-2.2656 3.5625-0.86719 0.6875-2 1.0312-3.4062 1.0312h-2.8438v-3.2188h1.5312c0.83203 0 1.4375-0.13672 1.8125-0.40625 0.38281-0.26172 0.67969-0.73047 0.89062-1.4062l0.14062-0.42188z"/>
  </symbol>
  <symbol id="f" overflow="visible">
   <path d="m14.953-3.7188h-8.2188l-1.3125 3.7188h-5.2812l7.5625-20.406h6.2656l7.5625 20.406h-5.2812zm-6.9062-3.7812h5.5781l-2.7812-8.125z"/>
  </symbol>
  <symbol id="t" overflow="visible">
   <path d="m2.3594-21.281h4.8906v21.281h-4.8906z"/>
  </symbol>
  <symbol id="h" overflow="visible">
   <path d="m17.75-9.3281v9.3281h-4.9219v-7.1406c0-1.3203-0.03125-2.2344-0.09375-2.7344s-0.16797-0.86719-0.3125-1.1094c-0.1875-0.3125-0.44922-0.55469-0.78125-0.73438-0.32422-0.17578-0.69531-0.26562-1.1094-0.26562-1.0234 0-1.8242 0.39844-2.4062 1.1875-0.58594 0.78125-0.875 1.8711-0.875 3.2656v7.5312h-4.8906v-15.312h4.8906v2.2344c0.73828-0.88281 1.5195-1.5391 2.3438-1.9688 0.83203-0.42578 1.75-0.64062 2.75-0.64062 1.7695 0 3.1133 0.54688 4.0312 1.6406 0.91406 1.0859 1.375 2.6562 1.375 4.7188z"/>
  </symbol>
  <symbol id="g" overflow="visible">
   <path d="m16.547-12.766c0.61328-0.94531 1.3477-1.6719 2.2031-2.1719 0.85156-0.5 1.7891-0.75 2.8125-0.75 1.7578 0 3.0977 0.54688 4.0156 1.6406 0.92578 1.0859 1.3906 2.6562 1.3906 4.7188v9.3281h-4.9219v-7.9844-0.35938c0.007813-0.13281 0.015625-0.32031 0.015625-0.5625 0-1.082-0.16406-1.8633-0.48438-2.3438-0.3125-0.48828-0.82422-0.73438-1.5312-0.73438-0.92969 0-1.6484 0.38672-2.1562 1.1562-0.51172 0.76172-0.77344 1.8672-0.78125 3.3125v7.5156h-4.9219v-7.9844c0-1.6953-0.14844-2.7852-0.4375-3.2656-0.29297-0.48828-0.8125-0.73438-1.5625-0.73438-0.9375 0-1.6641 0.38672-2.1719 1.1562-0.51172 0.76172-0.76562 1.8594-0.76562 3.2969v7.5312h-4.9219v-15.312h4.9219v2.2344c0.60156-0.86328 1.2891-1.5156 2.0625-1.9531 0.78125-0.4375 1.6406-0.65625 2.5781-0.65625 1.0625 0 2 0.25781 2.8125 0.76562 0.8125 0.51172 1.4258 1.2305 1.8438 2.1562z"/>
  </symbol>
  <symbol id="d" overflow="visible">
   <path d="m9.6406-12.188c-1.0859 0-1.9141 0.39062-2.4844 1.1719-0.57422 0.78125-0.85938 1.9062-0.85938 3.375s0.28516 2.5938 0.85938 3.375c0.57031 0.77344 1.3984 1.1562 2.4844 1.1562 1.0625 0 1.875-0.38281 2.4375-1.1562 0.57031-0.78125 0.85938-1.9062 0.85938-3.375s-0.28906-2.5938-0.85938-3.375c-0.5625-0.78125-1.375-1.1719-2.4375-1.1719zm0-3.5c2.6328 0 4.6914 0.71484 6.1719 2.1406 1.4766 1.418 2.2188 3.3867 2.2188 5.9062 0 2.5117-0.74219 4.4805-2.2188 5.9062-1.4805 1.418-3.5391 2.125-6.1719 2.125-2.6484 0-4.7148-0.70703-6.2031-2.125-1.4922-1.4258-2.2344-3.3945-2.2344-5.9062 0-2.5195 0.74219-4.4883 2.2344-5.9062 1.4883-1.4258 3.5547-2.1406 6.2031-2.1406z"/>
  </symbol>
  <symbol id="s" overflow="visible">
   <path d="m0.42188-15.312h4.8906l3.8281 10.578 3.7969-10.578h4.9062l-6.0312 15.312h-5.375z"/>
  </symbol>
  <symbol id="r" overflow="visible">
   <path d="m12.422-21.281v3.2188h-2.7031c-0.6875 0-1.1719 0.125-1.4531 0.375-0.27344 0.25-0.40625 0.6875-0.40625 1.3125v1.0625h4.1875v3.5h-4.1875v11.812h-4.8906v-11.812h-2.4375v-3.5h2.4375v-1.0625c0-1.6641 0.46094-2.8984 1.3906-3.7031 0.92578-0.80078 2.3672-1.2031 4.3281-1.2031z"/>
  </symbol>
  <symbol id="q" overflow="visible">
   <path d="m17.75-9.3281v9.3281h-4.9219v-7.1094c0-1.3438-0.03125-2.2656-0.09375-2.7656s-0.16797-0.86719-0.3125-1.1094c-0.1875-0.3125-0.44922-0.55469-0.78125-0.73438-0.32422-0.17578-0.69531-0.26562-1.1094-0.26562-1.0234 0-1.8242 0.39844-2.4062 1.1875-0.58594 0.78125-0.875 1.8711-0.875 3.2656v7.5312h-4.8906v-21.281h4.8906v8.2031c0.73828-0.88281 1.5195-1.5391 2.3438-1.9688 0.83203-0.42578 1.75-0.64062 2.75-0.64062 1.7695 0 3.1133 0.54688 4.0312 1.6406 0.91406 1.0859 1.375 2.6562 1.375 4.7188z"/>
  </symbol>
  <symbol id="p" overflow="visible">
   <path d="m2.5781-20.406h5.875l7.4219 14v-14h4.9844v20.406h-5.875l-7.4219-14v14h-4.9844z"/>
  </symbol>
  <symbol id="o" overflow="visible">
   <path d="m2.1875-5.9688v-9.3438h4.9219v1.5312c0 0.83594-0.007813 1.875-0.015625 3.125-0.011719 1.25-0.015625 2.0859-0.015625 2.5 0 1.2422 0.03125 2.1328 0.09375 2.6719 0.070313 0.54297 0.17969 0.93359 0.32812 1.1719 0.20703 0.32422 0.47266 0.57422 0.79688 0.75 0.32031 0.16797 0.69141 0.25 1.1094 0.25 1.0195 0 1.8203-0.39062 2.4062-1.1719 0.58203-0.78125 0.875-1.8672 0.875-3.2656v-7.5625h4.8906v15.312h-4.8906v-2.2188c-0.74219 0.89844-1.5234 1.5586-2.3438 1.9844-0.82422 0.41406-1.7344 0.625-2.7344 0.625-1.7617 0-3.1055-0.53906-4.0312-1.625-0.92969-1.082-1.3906-2.6602-1.3906-4.7344z"/>
  </symbol>
  <symbol id="n" overflow="visible">
   <path d="m2.5781-20.406h8.7344c2.5938 0 4.582 0.57812 5.9688 1.7344 1.3945 1.1484 2.0938 2.7891 2.0938 4.9219 0 2.1367-0.69922 3.7812-2.0938 4.9375-1.3867 1.1562-3.375 1.7344-5.9688 1.7344h-3.4844v7.0781h-5.25zm5.25 3.8125v5.7031h2.9219c1.0195 0 1.8047-0.25 2.3594-0.75 0.5625-0.5 0.84375-1.2031 0.84375-2.1094 0-0.91406-0.28125-1.6172-0.84375-2.1094-0.55469-0.48828-1.3398-0.73438-2.3594-0.73438z"/>
  </symbol>
  <symbol id="m" overflow="visible">
   <path d="m2.3594-15.312h4.8906v15.031c0 2.0508-0.49609 3.6172-1.4844 4.7031-0.98047 1.082-2.4062 1.625-4.2812 1.625h-2.4219v-3.2188h0.85938c0.92578 0 1.5625-0.21094 1.9062-0.625 0.35156-0.41797 0.53125-1.2461 0.53125-2.4844zm0-5.9688h4.8906v4h-4.8906z"/>
  </symbol>
  <symbol id="l" overflow="visible">
   <path d="m14.719-14.828v3.9844c-0.65625-0.45703-1.3242-0.79688-2-1.0156-0.66797-0.21875-1.3594-0.32812-2.0781-0.32812-1.3672 0-2.4336 0.40234-3.2031 1.2031-0.76172 0.79297-1.1406 1.9062-1.1406 3.3438 0 1.4297 0.37891 2.543 1.1406 3.3438 0.76953 0.79297 1.8359 1.1875 3.2031 1.1875 0.75781 0 1.4844-0.10938 2.1719-0.32812 0.6875-0.22656 1.3203-0.56641 1.9062-1.0156v4c-0.76172 0.28125-1.5391 0.48828-2.3281 0.625-0.78125 0.14453-1.5742 0.21875-2.375 0.21875-2.7617 0-4.9219-0.70703-6.4844-2.125-1.5547-1.4141-2.3281-3.3828-2.3281-5.9062 0-2.5312 0.77344-4.5039 2.3281-5.9219 1.5625-1.4141 3.7227-2.125 6.4844-2.125 0.80078 0 1.5938 0.074219 2.375 0.21875 0.78125 0.13672 1.5547 0.35156 2.3281 0.64062z"/>
  </symbol>
 </defs>
 <g>
  <path d="m599.29 175.75c-3.9531 2.7734-7.9688 5.0742-12.336 7.0859-0.17969-0.0625-0.41406-0.0625-0.64844 0-12.156 1.7148-27.5-5.5508-40.129-3.9531 2.3008-2.7148 4.6016-5.3711 6.8477-7.9062 6.4922 4.6016 19.359-3.5391 24.199-7.4922 4.4258-3.6562 8.1406-8.3203 10.684-13.457 2.8906-5.7227 2.3633-15.875 6.4336-20.535 0.46875-0.53125 0.64844-1.1797 0.58984-1.7695 0.46875-0.53125 1.0039-1.1211 1.5352-1.7148 1.832-2.1836 3.8984-4.3047 5.3125-6.7891 0.94531-1.7695-1.2383-3.3047-2.7148-2.0664-2.3008 2.0039-4.0703 4.7227-5.957 7.1406-0.23438 0.35156-0.46875 0.70703-0.76562 1.0625-0.46875 0.0625-0.94531 0.23438-1.418 0.76562-7.7891 9.2695-21.777 7.4375-30.984 14.93-7.0859 5.8398-11.453 15.992-9.207 25.082-0.0625 0-0.0625 0-0.11719 0.0625-1.832 1.4727-3.5391 3.0078-5.2539 4.6016 3.6562-10.504 0.82422-22.961-6.7266-31.398-0.23437-0.23438-0.53125-0.35156-0.82812-0.41406-0.11719-3.4844-1.0625-7.0234-2.832-9.793-1.3008-2.0664-4.1328-0.29688-3.2461 1.8867 1.7148 4.0156 2.6562 7.7344 3.3047 11.859-0.11719 13.16-14.637 20.242-14.758 33.465-0.0625 6.0195 3.5391 11.977 9.3242 12.809-4.4258 6.2539-8.2031 12.926-11.625 19.652 0.46875-6.1367-0.17969-12.395-3.7188-17.645-5.668-8.6172-19.531-9.3867-22.012-20.066-0.11719-0.53125-0.53125-0.82812-0.94531-1.1211 0.0625-0.17969 0.11719-0.35156 0.23438-0.58984 1.418-2.8906 3.6016-5.1367 5.668-7.5547 1.1211-1.3555-0.35156-3.7734-1.9492-2.5977-4.3047 3.0078-7.9688 9.3867-8.3203 15.164-3.4844 9.5586-4.6016 20.066 0 29.508 4.7812 9.8555 14.758 15.992 25.672 15.109 0.17969 0 0.29688-0.0625 0.46875-0.11719-2.2383 4.957-4.4258 10.27-5.957 15.641-6.7891-14.043-30.102-12.039-40.488-22.898-1.9492-4.4844-4.7812-11.094-3.6562-11.453 2.3008-0.76563 1.3555-4.25-1.0039-3.6562-5.0195 1.2383-3.1875 7.0234-0.53125 12.098-0.53125 0.46875-0.94531 1.1211-0.76562 2.0664 1.6523 7.8516 2.3633 17.348 6.0195 24.965-3.5391-1.3008-7.2031-2.3633-11.328-3.1289-28.211-5.1367-65.688 6.6094-86.34 28.449-2.0664-51.285-10.445-150.79-72.766-160.47-28.387-4.3672-67.512 36.176-41.195 54.531-8.6172 0.58984-17.645 4.3672-22.191 11.039-2.9531 4.3047-3.0703 11.805 0.53125 15.523-11.742-1.3008-23.547 0.58984-34.406 7.2578-1.0625 0.64844-1.418 1.5977-1.3555 2.5352-5.9023 5.0195-9.3242 12.863-7.4922 20.777 1.4727 6.2539 6.1992 10.801 11.859 13.691-13.34 4.3047-21.719 20.242-19.359 33.875 1.832 10.504 10.207 20.008 20.363 24.02-10.09 4.4844-12.926 19.414-6.7266 28.855 6.4336 9.793 17.941 13.105 29.098 11.859-6.9648 10.328-4.3672 24.902 4.8398 32.34-38.242-9.6211-70.527-28.035-107.23-43.496-1.3008-0.53125-2.832 0.64844-3.1875 1.832-2.3633 8.1406-4.3047 15.695-5.5508 24.02-3.7188-1.1211-8.2617-2.3633-11.273-0.53125-3.4219 2.0664-3.0703 6.9062-3.4219 10.445-0.78516 7.6172-1.3086 15.23-1.5508 22.902-0.054688 1.3555 1.1797 2.4805 2.4805 2.4805 2.832-0.054688 5.668 0.11719 8.5 0.0625 0.23438 3.0703 1.1797 6.4922 1.4727 8.8555 0.53125 3.5391 0.64844 7.7891 2.6562 10.801 0.054687 1.3555 0.70703 2.6562 2.2383 2.832 23.664 3.3047 47.746 6.2539 70.41 14.281 21.719 7.6094 39.777 21.543 60.434 31.219 30.453 14.34 64.742 19.711 98.086 16.109 63.973-6.8438 120.34-48.57 146.54-107.29 8.793-19.77 14.34-44.793 11.805-66.863 0.054687 0 0.054687-0.054688 0.11719-0.054688 1.2383-1.1797 2.418-2.3633 3.6016-3.5391 0 18.473 8.6758 38.242 23.133 49.812 0.94531 0.76562 2.7148-0.23438 1.832-1.418-11.688-15.344-18.238-30.336-20.125-49.695-0.11719-1.0039-0.70703-1.7148-1.418-2.0664 3.8984-3.8359 7.7344-7.7891 11.625-11.688 1.5977-1.5977 0.35156-4.3047-1.832-4.3672-3.3047-0.0625-6.6094-0.11719-9.918-0.0625 0.0625-0.11719 0.11719-0.17969 0.11719-0.29688-0.23438-3.6562-0.11719-7.2578 0.23438-10.801 11.156 19.945 44.852 9.6211 58.426-3.1875 4.3672-0.35156 8.793-1.7695 12.156-4.1875 1.7695-1.2383 0.17969-4.0156-1.6523-2.8906-3.3047 2.0039-6.3711 3.2461-9.7383 4.0703-0.35156-0.58984-0.94531-1.0039-1.7148-1.0625-18.531-1.7695-37.711-15.164-55.535-4.1875 1.2383-5.1367 2.8906-10.09 4.957-14.992 19.477 13.746 44.852 9.1445 58.84-10.445 0.17969-0.29688 0.17969-0.53125 0.23438-0.76562 3.9531-1.418 7.7344-3.6016 10.562-6.7266 1.4727-1.5977-0.70703-3.7734-2.3008-2.3008-3.0078 2.7148-6.1367 4.957-9.8555 6.6094-0.35156-0.11719-0.76563-0.23437-1.1797-0.11719-11.328 2.1836-21.895-2.0039-33.168-1.9492-6.1992 0-11.922 1.3555-17.348 3.8359 3.3672-6.1367 7.2031-12.039 11.328-17.707 13.105 20.715 41.137 2.3633 54.414-7.9062 0.41406-0.29687 0.64844-0.70703 0.70703-1.1211 4.4258-1.5352 8.6758-3.8359 12.156-6.9062 1.4961-1.25-0.39062-3.7891-1.9883-2.668zm-26.086-35.941c4.7227-1.418 9.4414-2.5352 13.691-4.6016-1.1211 4.8984-1.5977 10.152-4.1328 14.578-5.0742 8.9727-16.996 18.883-28.09 17.348-0.23438-0.46875-0.58984-0.88672-1.0625-1.1797 0.82812-13.102 6.4336-22.309 19.594-26.145zm-66.211 121.7c-3.5391 0.0625-7.0859 0.23438-10.684 0.53125-2.3008-4.7812-5.3125-9.1445-8.9727-13.043 6.0195 0.41406 12.156-0.88672 17.59-3.4844-0.53516 5.4883 0 10.859 2.0664 15.996zm-41.195-44.734c12.098 9.793 33.105 7.3203 40.129 22.43-0.0625 0.29688-0.11719 0.58984-0.17969 0.88672-6.9648 3.8359-16.289 6.0195-24.199 3.6016-2.5352-1.9492-5.3711-3.7188-8.5-5.2539-4.7734-5.2617-6.1914-13.934-7.25-21.664zm-223.09-52.824c6.9648-3.8359 14.461-3.7188 22.191-3.6562 2.4805 0 2.8906-3.5391 0.58984-4.25-0.88672-0.23437-1.8867-0.41406-2.832-0.58984-12.453-35.59-0.23438-51.754 36.527-48.512 14.93 4.4844 26.32 13.277 34.109 26.383 7.8516 11.977 11.742 26.266 15.461 39.957 8.3789 30.391 12.629 61.32 15.758 92.598 0 0.11719 0.0625 0.23438 0.0625 0.35156-7.7891 10.152-12.098 22.191-10.562 35.469-17.176-34.523-37.535-70.051-66.746-94.426-13.34-11.094-30.273-21.129-47.746-24.613-8.793-5.3711-4.0117-14.695 3.1875-18.711zm254.36 137.52c-3.0078 52.703-41.492 102.57-85.809 128.36-50.281 29.098-113.9 30.336-165.78 4.6641-19.594-9.6758-37.121-22.43-57.953-29.688-22.961-7.9688-47.332-10.977-71.293-13.988h-0.0625c-0.0625-1.1211-0.17969-2.3008-0.29688-3.5391-0.35547-4.1367-1.0039-8.2656-1.4766-12.344-0.0625-0.82422-0.17969-1.5977-0.23438-2.418 0.11719 0 0.23438 0 0.53125-0.0625 1.5352-0.35156 3.8359 0.23438 5.4336 0.29688 3.9531 0.17969 7.9062 0.53125 11.859 0.41406 3.1875-0.11719 3.0078-4.4258 0-4.8398-5.0742-0.64844-10.328-0.64844-15.461-0.88672-2.832-0.11719-6.1992-0.53125-7.3203 2.7148-0.11719 0.35156-0.11719 0.82812-0.17969 1.2383-1.9492-0.53125-3.9531-0.88672-5.957-1.3008 0.23438-4.0156 0.53125-8.0234 0.88672-12.039 0.23438-3.3672-0.35156-13.105 3.4844-14.758 2.1211-0.88672 9.6211 2.3633 11.922 3.0078 4.7227 1.418 9.2695 3.2461 13.988 4.4844 2.5977 0.70703 4.4258-3.1875 1.8867-4.4844-5.6055-2.832-11.922-4.5469-18-6.1367-0.17969-0.0625-0.35156-0.11719-0.53125-0.17969 5.5508-14.52 7.4375-20.949 23.605-12.691 11.453 5.8398 22.602 12.219 34.289 17.645 21.598 10.035 44.496 16.879 68.105 20.301 2.3633 0.35156 3.7734-1.9492 3.2461-3.6562h1.1211c3.2461-0.41406 3.4219-5.0742 0-5.1914-18.176-0.46875-27.266-20.184-15.875-32.934 4.7227-1.2383 9.2695-3.1875 13.043-5.8398 1.8867-1.3008 0.82812-4.8398-1.6523-3.9531-11.508 4.1875-23.605 9.3867-35.234 2.3633-12.746-7.6719-12.746-25.613 2.0664-30.516 3.5391 0.53125 7.2031 0.35156 10.742-0.76562 2.4805-0.82813 2.0664-4.4844-0.58984-4.5469-13.691-0.35156-27.562-5.4883-31.102-20.48-3.3672-14.398 6.8477-25.262 18.117-31.926 3.6562 1.2383 7.4375 1.9492 10.977 2.0039 3.0703 0 3.2461-4.0703 0.70703-5.0742-7.9062-3.0703-19.18-3.4844-22.309-13.105-1.9492-6.1992 0.53125-12.453 4.4258-17.41 0.46875 0 1.0039-0.0625 1.4727-0.35156 41.43-21.301 85.223 16.699 108.36 47.566 19.242 25.613 33.168 54.77 50.695 81.504 0.76562 1.1211 2.0039 0.76562 2.5352-0.0625 1.1797-0.58984 2.1211-2.0664 1.3555-3.6016-35.402-77.051 138.34-125.75 132.26-17.797zm16.289-35c-3.9531 3.8359-7.9062 7.7344-11.805 11.625-0.76562-4.1328-1.9492-8.0859-3.4219-11.859 5.0742-0.003906 10.152 0.11328 15.227 0.23438zm-0.88672-24.906c16.055-8.8555 33.051 1.3555 49.578 4.8398 0 0.17969 0.0625 0.29688 0.23437 0.41406-13.809 10.152-42.375 18.297-49.75-2.1836-0.29687-0.82812-0.88672-1.2383-1.5352-1.4727 0.11719-0.53125 0.23438-1.0625 0.35156-1.5977 0.29297 0.17969 0.70703 0.23828 1.1211 0zm3.125-28.148c-0.41406 0.88672-0.82422 1.7148-1.2383 2.5977-0.23438-0.58984-0.82812-1.0625-1.7695-1.0039-22.07 1.832-27.562-20.949-22.25-37.773 2.1836 3.4844 5.5508 5.9023 9.5039 8.0859 5.1914 2.832 9.8555 5.3711 12.691 10.859 2.5977 5.0742 2.9531 10.977 3.0703 16.582 0 0.11719 0.0625 0.23438 0.17969 0.35156-0.0625 0.12109-0.125 0.23828-0.1875 0.30078zm39.016 0.53125c4.7812 0.82812 9.3867 1.3008 14.043 1.1211-13.223 14.34-33.523 15.758-49.867 4.6641 0.58984-1.3008 1.2383-2.5977 1.8867-3.8984 11.566-4.7227 21.664-3.8984 33.938-1.8867zm-23.43-26.914c-14.281-4.0703-3.2461-20.125 1.8867-27.445 2.8906-4.1875 5.0195-8.0859 5.8398-12.629 5.957 10.152 4.25 22.133-2.4805 32.105-0.29688 0.53125-0.23438 0.94531-0.0625 1.3555-1.8242 2.1289-3.5312 4.3125-5.1836 6.6133zm5.0742 4.1875c2.1211-2.832 4.3672-5.6055 6.6094-8.3789 11.273-2.7734 25.379 3.4844 37.656 4.3672-13.578 10.328-29.508 17.18-44.266 4.0117z"/>
  <path d="m559.93 160.82c5.2539-0.46875 10.684-3.0078 13.277-7.7891 0.58984-1.0625-0.88672-2.3633-1.7695-1.3555-3.2461 3.7734-6.668 6.4922-11.742 7.3203-1 0.17188-0.76562 1.8867 0.23438 1.8242z"/>
  <path d="m542.7 191.92c4.1328 2.4805 9.8555 3.1875 14.043 0.46875 1.1797-0.82812 0.46875-3.0703-1.0625-2.4805-4.0703 1.4727-7.7891 2.1836-11.859 0.11719-1.2383-0.64062-2.3633 1.1836-1.1211 1.8945z"/>
  <path d="m539.68 251.65c1.832-0.53125 1.0039-3.0078-0.76562-2.7734-5.3086 0.76562-9.918 0.64844-14.992-1.0625-1.3008-0.41406-2.1836 1.6523-0.94531 2.1836 5.1406 2.3008 11.215 3.1289 16.703 1.6523z"/>
  <path d="m536.73 222.38c1.5352-0.23438 1.1797-2.7734-0.35156-2.7148-3.7734 0.17969-6.9648-0.17969-10.27-2.0664-1.2383-0.70703-2.2383 1.0625-1.1211 1.8867 3.4219 2.4258 7.6172 3.6641 11.742 2.8945z"/>
  <path d="m535.73 165.54c-0.46875 4.3047-1.8867 7.6719-4.3047 11.211-0.70703 1.0039 0.82812 2.1836 1.6523 1.3008 2.9531-3.4219 4.3672-8.0234 4.0156-12.512-0.066406-0.88672-1.3008-0.88672-1.3633 0z"/>
  <path d="m503.33 194.23c-1.1211-0.64844-2.0039 1.0039-1.0039 1.7148 3.8984 2.8906 5.957 6.668 7.0234 11.273 0.41406 1.832 3.0703 1.0625 2.7734-0.70703-0.87891-5.1992-4.3633-9.6289-8.793-12.281z"/>
  <path d="m488.1 233.47c2.8906 0.35156 4.5469 2.0664 5.7852 4.5469 0.58984 1.3008 2.8906 0.35156 2.3633-1.0039-1.418-3.4219-4.4844-5.3711-8.1406-5.5508-1.3008-0.058594-1.2461 1.8281-0.007813 2.0078z"/>
  <path d="m464.61 266.81c2.3633 14.281-19.477 15.109-23.547 3.5391-0.53125-1.6523-3.3672-1.5352-3.1875 0.41406 0.82812 8.9102 11.094 13.223 19.125 12.273 8.0234-1.0039 16.645-9.6758 11.742-18-1.3594-2.3555-4.5469-0.70312-4.1328 1.7734z"/>
  <path d="m343.93 256.43c0.41406 1.4727 2.9531 1.2383 2.7734-0.35156-0.70703-6.082-4.7227-12.039-9.6758-15.523-0.76563-0.53125-1.7148 0.70703-1.0039 1.3555 4.3672 4.25 6.3711 8.7344 7.9062 14.52z"/>
  <path d="m332.36 244.09c1.3008 2.7148 1.8867 5.5508 2.832 8.3789 0.46875 1.3555 2.7734 1.2383 2.5977-0.35156-0.46875-6.1992-4.4258-12.691-8.8555-16.879-1.0039-0.94531-2.2383 0.41406-1.4727 1.418 1.8867 2.3594 3.6016 4.7773 4.8984 7.4336z"/>
  <path d="m299.01 130.13c5.9023 1.9492 11.156 4.8984 15.934 8.9102 1.4727 1.1797 3.5391-0.88672 2.0664-2.1211-5.1367-4.1875-10.977-7.2578-17.41-8.9102-1.4141-0.35938-1.9453 1.6445-0.58984 2.1211z"/>
  <path d="m293.35 116.86c8.6758 1.1211 14.52 5.3125 18.594 12.988 0.82813 1.5977 3.6016 0.46875 2.9531-1.2383-3.0703-8.3789-12.57-14.875-21.543-14.281-1.6562 0.11328-1.6016 2.3516-0.003907 2.5312z"/>
  <path d="m210.96 405.62c-1.0039-0.35156-1.418 1.2383-0.41406 1.5977 5.7852 2.1211 10.859 5.4336 15.164 9.918 1.0625 1.0625 2.7148-0.58984 1.6523-1.6523-4.6602-4.5547-10.211-7.8594-16.402-9.8633z"/>
  <path d="m206.12 406.51c-1.1211-0.46875-1.8867 1.418-0.82422 1.8867 5.0195 2.3008 9.207 5.3086 13.395 8.8555 1.2383 1.0625 2.9531-0.64844 1.7695-1.7695-4.0703-3.957-9.1445-6.8477-14.34-8.9727z"/>
  <path d="m213.2 312.32c-3.5391-0.88672-9.4414-1.7695-8.3203-6.9062 0.23438-1.1211-1.3555-1.9492-1.8867-0.82812-2.9531 6.3711 4.7227 10.035 9.8555 10.625 1.6523 0.17969 1.9492-2.4766 0.35156-2.8906z"/>
  <path d="m209.48 199.65c-3.4219 2.7148-4.3672 8.1406-1.6523 11.625 1.0625 1.418 2.9531 0.29688 2.3008-1.3008-1.2383-2.9531-0.53125-5.7227 1.832-7.7891 1.7695-1.5273-0.76562-3.8906-2.4805-2.5352z"/>
  <path d="m207.77 213.34c-5.0742-0.53125-6.0195-6.1367-2.832-9.3867 1.5977-1.5977-0.71094-3.7188-2.418-2.418-6.0742 4.7812-1.9492 13.809 5.2539 13.871 1.3594 0.0625 1.2969-1.9492-0.003907-2.0664z"/>
  <use x="70" y="644" xlink:href="#u"/>
  <use x="90.550781" y="644" xlink:href="#c"/>
  <use x="104.359375" y="644" xlink:href="#a"/>
  <use x="123.347656" y="644" xlink:href="#e"/>
  <use x="142.242188" y="644" xlink:href="#b"/>
  <use x="155.628906" y="644" xlink:href="#a"/>
  <use x="174.617188" y="644" xlink:href="#k"/>
  <use x="204.410156" y="644" xlink:href="#j"/>
  <use x="224.453125" y="644" xlink:href="#i"/>
  <use x="252.453125" y="644" xlink:href="#f"/>
  <use x="274.121094" y="644" xlink:href="#t"/>
  <use x="283.71875" y="644" xlink:href="#a"/>
  <use x="302.710938" y="644" xlink:href="#h"/>
  <use x="322.640625" y="644" xlink:href="#e"/>
  <use x="351.285156" y="644" xlink:href="#f"/>
  <use x="372.953125" y="644" xlink:href="#c"/>
  <use x="386.765625" y="644" xlink:href="#b"/>
  <use x="400.148438" y="644" xlink:href="#a"/>
  <use x="419.140625" y="644" xlink:href="#g"/>
  <use x="448.3125" y="644" xlink:href="#d"/>
  <use x="467.550781" y="644" xlink:href="#s"/>
  <use x="485.804687" y="644" xlink:href="#e"/>
  <use x="70" y="672" xlink:href="#r"/>
  <use x="82.183594" y="672" xlink:href="#c"/>
  <use x="95.992188" y="672" xlink:href="#d"/>
  <use x="115.226562" y="672" xlink:href="#g"/>
  <use x="154.152344" y="672" xlink:href="#b"/>
  <use x="167.535156" y="672" xlink:href="#q"/>
  <use x="187.46875" y="672" xlink:href="#a"/>
  <use x="216.207031" y="672" xlink:href="#p"/>
  <use x="239.640625" y="672" xlink:href="#d"/>
  <use x="258.878906" y="672" xlink:href="#o"/>
  <use x="278.8125" y="672" xlink:href="#h"/>
  <use x="308.492188" y="672" xlink:href="#n"/>
  <use x="329.015625" y="672" xlink:href="#c"/>
  <use x="342.820312" y="672" xlink:href="#d"/>
  <use x="362.058594" y="672" xlink:href="#m"/>
  <use x="371.65625" y="672" xlink:href="#a"/>
  <use x="390.648438" y="672" xlink:href="#l"/>
  <use x="407.242188" y="672" xlink:href="#b"/>
 </g>
</svg>
